<svg width="36" height="45" fill="none" xmlns="http://www.w3.org/2000/svg"><path d="M31.5 41.1h.6V3.9H3.9v37.2h27.6ZM4.5.6h27c2.15 0 3.9 1.75 3.9 3.9v38.25a1.65 1.65 0 0 1-1.65 1.65H2.25A1.65 1.65 0 0 1 .6 42.75V4.5C.6 2.35 2.35.6 4.5.6Z" fill="#232D32" stroke="#fff" stroke-width="1.2"/><path d="M9.6 9.6h5.55v3.3H9.6V9.6Zm11.25 0h5.55v3.3h-5.55V9.6Zm-11.25 9h5.55v3.3H9.6v-3.3Zm11.25.07h5.55v3.23h-5.55v-3.23ZM9.6 27.6h5.55v3.3H9.6v-3.3Zm11.25 0h5.55v3.3h-5.55v-3.3Z" fill="#232D32" stroke="#fff" stroke-width="1.2"/></svg>