<svg width="39" height="45" fill="none" xmlns="http://www.w3.org/2000/svg"><path d="m25.608 40.574.106.106.106-.106 10.485-10.485 2.054 2.054-12.645 12.645-6.216-6.216 2.054-2.054 4.056 4.056ZM3.064 41.936V3.065h13.157v9.792a3.074 3.074 0 0 0 3.065 3.065h9.792V25.564h2.915v-12.71a1.312 1.312 0 0 0-.433-1.01l-.006-.005L20.304.589 20.3.583A1.311 1.311 0 0 0 19.29.15H3.216A3.074 3.074 0 0 0 .15 3.216v38.57a3.074 3.074 0 0 0 3.064 3.065m-.15-2.914L3.214 45v-.15m-.15-2.914h11.25m-11.25 0h11.25m-11.1 2.914h11.1m-11.1 0h11.1m0 0v-2.914m0 2.914v-2.914m5.078-38.184-.256-.256v9.512H28.647l-.256-.256-9-9Z" fill="#232D32" stroke="#fff" stroke-width=".3"/></svg>