<svg width="114" height="193" fill="none" xmlns="http://www.w3.org/2000/svg"><path d="M56.65 110.246c9.816 0 17.773-7.957 17.773-17.773 0-9.815-7.957-17.772-17.772-17.772-9.816 0-17.773 7.957-17.773 17.772 0 9.816 7.957 17.773 17.773 17.773Z" fill="#F06"/><path d="M9.72 19.439c5.368 0 9.72-4.352 9.72-9.72C19.44 4.352 15.088 0 9.72 0 4.353 0 .001 4.352.001 9.72c0 5.367 4.352 9.719 9.72 9.719Z" fill="url(#a)"/><path d="M21.272 136.711c-.083-.056-.166-.111-.222-.195a1.528 1.528 0 0 1-.222-.194c.111.139.278.25.444.389Z" fill="url(#b)"/><path d="M20.356 135.961c.223.194.445.361.667.555.083.056.166.139.222.195.083.083.194.139.278.222.139.111.305.222.444.333l-.75-.583c-.139-.111-.305-.222-.444-.361-.139-.111-.278-.25-.417-.361ZM21.994 137.266c.028 0 .028.028.056.028-.028 0-.056 0-.056-.028Zm.028.028c.056.028.083.083.139.111.055.056.139.111.194.167-.11-.084-.222-.195-.333-.278Zm.36.278c7.11 5.415 15.524 9.191 24.716 10.746.111.028.222.028.333.056 1.805.305 3.666.5 5.527.611h-.056c-.25-.028-.5-.028-.75-.056l-.916-.083c-.361-.028-.694-.083-1.028-.111-.222-.028-.416-.056-.61-.083-.25-.028-.5-.056-.75-.111-.14-.028-.278-.028-.39-.056-.332-.055-.638-.083-.943-.139-.111-.028-.223-.028-.334-.055a3054461213801.456 3054461213801.456 0 0 1-1-.167c-.333-.055-.666-.139-.971-.194-.278-.056-.584-.111-.861-.195l-1.083-.25-1-.25c-.278-.083-.555-.138-.805-.222-.084-.027-.195-.055-.278-.083-.25-.083-.5-.139-.777-.222-.167-.056-.334-.083-.5-.139-.222-.056-.445-.139-.64-.194-.249-.084-.471-.167-.721-.25-.25-.084-.472-.167-.722-.25-.722-.25-1.416-.528-2.138-.806-.195-.083-.417-.166-.611-.25-.39-.166-.806-.333-1.194-.499-.278-.111-.556-.25-.806-.361-.277-.139-.555-.25-.833-.389-.25-.111-.5-.25-.75-.361a55.572 55.572 0 0 1-3.11-1.666c-.222-.139-.472-.278-.694-.417-.528-.305-1.055-.639-1.583-.972a13.506 13.506 0 0 1-.639-.416 43.797 43.797 0 0 1-3.082-2.166Zm30.576 11.413c.166 0 .305.028.471.028-.166 0-.305 0-.471-.028ZM53.43 149.013c.277.027.527.027.777.027-.278 0-.527 0-.777-.027Zm.75.055c.194 0 .36.028.555.028-.167-.028-.361-.028-.556-.028Z" fill="red"/><path d="M65.898 148.374c-2.777.472-5.61.722-8.498.75H55.43c-.223 0-.445 0-.64-.028-.443 0-.888-.028-1.332-.055-.167 0-.361-.028-.528-.028-.25-.028-.5-.028-.75-.056l-.916-.083c-.36-.028-.694-.083-1.027-.111-.222-.028-.417-.056-.611-.083-.25-.028-.5-.056-.75-.111-.139-.028-.278-.028-.389-.056-.333-.055-.639-.083-.944-.139-.111-.028-.222-.028-.333-.055l-.5-.084-.5-.083a9.961 9.961 0 0 1-.972-.194c-.278-.056-.583-.111-.86-.195l-1.084-.25-1-.25c-.277-.083-.555-.138-.805-.222-.083-.028-.194-.055-.277-.083-.25-.083-.5-.139-.778-.222-.167-.056-.333-.084-.5-.139-.222-.056-.444-.139-.639-.194-.25-.084-.472-.167-.722-.223-.25-.083-.472-.166-.722-.25-.722-.249-1.416-.527-2.138-.805-.194-.083-.417-.166-.61-.25-.39-.166-.806-.333-1.195-.5-.278-.111-.555-.25-.805-.361-.278-.138-.556-.25-.833-.388-.25-.111-.5-.25-.75-.361a54.935 54.935 0 0 1-3.11-1.667c-.223-.138-.473-.277-.695-.416-.527-.306-1.055-.639-1.582-.972l-.667-.417a34.145 34.145 0 0 1-1.638-1.138c-.25-.195-.5-.361-.778-.556-.028-.027-.055-.055-.111-.083-.194-.139-.361-.278-.555-.416a.811.811 0 0 0-.195-.139c-.055-.056-.11-.084-.194-.139l-.75-.583c-.139-.111-.305-.222-.444-.361a4.788 4.788 0 0 1-.417-.361c-.139-.111-.305-.25-.444-.361-.111-.084-.195-.167-.306-.25-.027 0-.027-.028-.055-.056a3.482 3.482 0 0 0-.361-.305 44.027 44.027 0 0 1-1.222-1.111c-.139-.111-.278-.25-.389-.361-8.553-8.164-14.551-18.967-16.69-31.102-.583-3.222-.86-6.526-.86-9.914V29.519h19.438v59.178a64.122 64.122 0 0 0-.138 3.999c0 10.552 2.888 20.438 7.914 28.88a56.747 56.747 0 0 0 29.436 24.382 64.58 64.58 0 0 0 9.192 2.416Z" fill="url(#c)"/><path d="M112.551 83.226a55.686 55.686 0 0 1-2.443 9.109c-4.443 12.357-13.08 22.743-24.188 29.436a56.413 56.413 0 0 1-23.632 7.803c16.218-2.388 29.02-15.218 31.436-31.408.222-1.471.36-2.971.388-4.47V92.14a42.801 42.801 0 0 0-.388-5.026 56.414 56.414 0 0 0-8.331-24.52C78.728 51.957 68.62 43.681 56.65 39.321a55.394 55.394 0 0 0-10.025-2.61 57.175 57.175 0 0 1 10.053-.889c3.276 0 6.47.278 9.58.806.167.027.306.055.472.083 14.663 2.638 27.381 10.913 35.796 22.493 4.693 6.47 8.053 13.94 9.663 22.05.139.666.25 1.305.361 1.971Z" fill="url(#d)"/><path d="M93.751 87.114c-2.666-18.023-18.19-31.852-36.962-31.852a37.164 37.164 0 0 0-17.911 4.582v-21.16a54.51 54.51 0 0 1 7.748-1.944 57.134 57.134 0 0 1 10.025 2.61c11.996 4.332 22.077 12.607 28.741 23.27a55.855 55.855 0 0 1 8.359 24.494Z" fill="url(#e)"/><path d="M113.302 92.334v.861a55.286 55.286 0 0 1-.723 8.359c-3.86 23.854-22.576 42.71-46.347 46.764-.111.028-.222.028-.334.056a54.708 54.708 0 0 1-9.247-2.472 56.747 56.747 0 0 1-29.436-24.382c-5.026-8.442-7.914-18.328-7.914-28.88 0-1.333.055-2.666.139-4v4c0 18.772 13.829 34.295 31.852 36.934a33.18 33.18 0 0 0 5.026.388H56.79c1 0 1.972-.027 2.944-.111.86-.055 1.721-.166 2.554-.277a56.414 56.414 0 0 0 23.633-7.804c11.107-6.664 19.744-17.05 24.187-29.436a58.653 58.653 0 0 0 2.444-9.108c.416 2.5.666 5.082.722 7.664 0 .278.028.556.028.833v.611Z" fill="url(#f)"/><path d="M16.587 174.406c1.283.367 2.27 1.018 2.963 1.955.692.916 1.038 2.036 1.038 3.36 0 1.202-.315 2.25-.946 3.146-.632.896-1.538 1.589-2.72 2.078-1.16.488-2.535.733-4.123.733H1.955v-21.75h10.57c2.28 0 4.092.51 5.437 1.528 1.344 1.018 2.016 2.393 2.016 4.124 0 1.12-.296 2.107-.886 2.963-.59.855-1.426 1.476-2.505 1.863Zm-9.042-1.955h4.002c1.059 0 1.832-.163 2.321-.489.489-.326.733-.845.733-1.558 0-.733-.254-1.272-.763-1.619-.49-.346-1.253-.519-2.291-.519H7.545v4.185Zm4.582 8.889c1.1 0 1.884-.173 2.352-.519.489-.346.733-.927.733-1.741 0-.835-.234-1.426-.702-1.772-.469-.346-1.263-.519-2.383-.519H7.545v4.551h4.582Zm19.096 4.582c-1.73 0-3.238-.326-4.52-.977-1.284-.652-2.271-1.589-2.964-2.811-.692-1.222-1.038-2.657-1.038-4.307 0-1.649.346-3.085 1.038-4.307.693-1.222 1.68-2.159 2.963-2.81 1.283-.652 2.79-.978 4.521-.978 1.71 0 3.198.336 4.46 1.008 1.283.652 2.27 1.589 2.963 2.811.693 1.201 1.039 2.627 1.039 4.276 0 1.65-.346 3.085-1.039 4.307-.692 1.202-1.68 2.139-2.963 2.811-1.262.651-2.75.977-4.46.977Zm0-4.124c1.996 0 2.994-1.323 2.994-3.971 0-1.344-.255-2.332-.764-2.963-.489-.651-1.232-.977-2.23-.977-1.018 0-1.782.326-2.29.977-.51.631-.764 1.619-.764 2.963 0 1.365.254 2.373.763 3.024.51.632 1.273.947 2.291.947Zm19.189 4.124c-1.731 0-3.238-.326-4.521-.977-1.283-.652-2.27-1.589-2.963-2.811-.693-1.222-1.039-2.657-1.039-4.307 0-1.649.346-3.085 1.039-4.307.692-1.222 1.68-2.159 2.963-2.81 1.283-.652 2.79-.978 4.52-.978 1.711 0 3.198.336 4.46 1.008 1.283.652 2.271 1.589 2.964 2.811.692 1.201 1.038 2.627 1.038 4.276 0 1.65-.346 3.085-1.038 4.307-.693 1.202-1.68 2.139-2.964 2.811-1.262.651-2.749.977-4.46.977Zm0-4.124c1.995 0 2.993-1.323 2.993-3.971 0-1.344-.254-2.332-.763-2.963-.49-.651-1.232-.977-2.23-.977-1.018 0-1.782.326-2.291.977-.51.631-.764 1.619-.764 2.963 0 1.365.255 2.373.764 3.024.509.632 1.273.947 2.29.947Zm22.182 3.88-5.285-6.69v6.69H61.78v-22.483h5.53v13.441l5.192-6.445h6.537l-6.11 7.422 6.354 8.065h-6.69Z" fill="url(#g)"/><path d="M16.587 174.406c1.283.367 2.27 1.018 2.963 1.955.692.916 1.038 2.036 1.038 3.36 0 1.202-.315 2.25-.946 3.146-.632.896-1.538 1.589-2.72 2.078-1.16.488-2.535.733-4.123.733H1.955v-21.75h10.57c2.28 0 4.092.51 5.437 1.528 1.344 1.018 2.016 2.393 2.016 4.124 0 1.12-.296 2.107-.886 2.963-.59.855-1.426 1.476-2.505 1.863Zm-9.042-1.955h4.002c1.059 0 1.832-.163 2.321-.489.489-.326.733-.845.733-1.558 0-.733-.254-1.272-.763-1.619-.49-.346-1.253-.519-2.291-.519H7.545v4.185Zm4.582 8.889c1.1 0 1.884-.173 2.352-.519.489-.346.733-.927.733-1.741 0-.835-.234-1.426-.702-1.772-.469-.346-1.263-.519-2.383-.519H7.545v4.551h4.582Zm19.096 4.582c-1.73 0-3.238-.326-4.52-.977-1.284-.652-2.271-1.589-2.964-2.811-.692-1.222-1.038-2.657-1.038-4.307 0-1.649.346-3.085 1.038-4.307.693-1.222 1.68-2.159 2.963-2.81 1.283-.652 2.79-.978 4.521-.978 1.71 0 3.198.336 4.46 1.008 1.283.652 2.27 1.589 2.963 2.811.693 1.201 1.039 2.627 1.039 4.276 0 1.65-.346 3.085-1.039 4.307-.692 1.202-1.68 2.139-2.963 2.811-1.262.651-2.75.977-4.46.977Zm0-4.124c1.996 0 2.994-1.323 2.994-3.971 0-1.344-.255-2.332-.764-2.963-.489-.651-1.232-.977-2.23-.977-1.018 0-1.782.326-2.29.977-.51.631-.764 1.619-.764 2.963 0 1.365.254 2.373.763 3.024.51.632 1.273.947 2.291.947Zm19.189 4.124c-1.731 0-3.238-.326-4.521-.977-1.283-.652-2.27-1.589-2.963-2.811-.693-1.222-1.039-2.657-1.039-4.307 0-1.649.346-3.085 1.039-4.307.692-1.222 1.68-2.159 2.963-2.81 1.283-.652 2.79-.978 4.52-.978 1.711 0 3.198.336 4.46 1.008 1.283.652 2.271 1.589 2.964 2.811.692 1.201 1.038 2.627 1.038 4.276 0 1.65-.346 3.085-1.038 4.307-.693 1.202-1.68 2.139-2.964 2.811-1.262.651-2.749.977-4.46.977Zm0-4.124c1.995 0 2.993-1.323 2.993-3.971 0-1.344-.254-2.332-.763-2.963-.49-.651-1.232-.977-2.23-.977-1.018 0-1.782.326-2.291.977-.51.631-.764 1.619-.764 2.963 0 1.365.255 2.373.764 3.024.509.632 1.273.947 2.29.947Zm22.182 3.88-5.285-6.69v6.69H61.78v-22.483h5.53v13.441l5.192-6.445h6.537l-6.11 7.422 6.354 8.065h-6.69Z" fill="#3B3E6F" fill-opacity=".3"/><path d="M91.651 163.928h5.743v21.75h-5.743v-21.75Zm18.829 17.534c.367 0 .856-.061 1.467-.183v4.185c-.754.305-1.711.458-2.872.458-2.097 0-3.696-.59-4.795-1.772-1.08-1.181-1.619-2.82-1.619-4.918v-5.009h-2.902v-4.063h2.902v-3.513l5.528-1.772v5.285h3.727v4.063h-3.727v5.009c0 .733.214 1.294.642 1.68.448.367.998.55 1.649.55Z" fill="#F06"/><defs><linearGradient id="a" x1="-2.53" y1=".444" x2=".292" y2="24.403" gradientUnits="userSpaceOnUse"><stop stop-color="#6F0DBC"/><stop offset=".479" stop-color="#4A7ADA"/><stop offset="1" stop-color="#74A2FF"/></linearGradient><linearGradient id="b" x1="20.788" y1="136.509" x2="21.26" y2="136.509" gradientUnits="userSpaceOnUse"><stop stop-color="#fff"/><stop offset="1"/></linearGradient><linearGradient id="c" x1="-8.516" y1="32.251" x2="22.06" y2="175.171" gradientUnits="userSpaceOnUse"><stop stop-color="#6F0DBC"/><stop offset=".609" stop-color="#4A7ADA"/><stop offset="1" stop-color="#74A2FF"/></linearGradient><linearGradient id="d" x1="65.26" y1="35.823" x2="81.227" y2="129.685" gradientUnits="userSpaceOnUse"><stop stop-color="#6F0DBC"/><stop offset=".479" stop-color="#4A7ADA"/><stop offset="1" stop-color="#74A2FF"/></linearGradient><linearGradient id="e" x1="38.878" y1="61.941" x2="93.751" y2="61.941" gradientUnits="userSpaceOnUse"><stop stop-color="#6F0DBC"/><stop offset=".479" stop-color="#4A7ADA"/><stop offset="1" stop-color="#74A2FF"/></linearGradient><linearGradient id="f" x1="32.075" y1="138.432" x2="117.467" y2="86.919" gradientUnits="userSpaceOnUse"><stop stop-color="#6F0DBC"/><stop offset=".479" stop-color="#4A7ADA"/><stop offset="1" stop-color="#74A2FF"/></linearGradient><linearGradient id="g" x1="0" y1="173.85" x2="78.588" y2="173.85" gradientUnits="userSpaceOnUse"><stop stop-color="#6F0DBC"/><stop offset=".479" stop-color="#4A7ADA"/><stop offset="1" stop-color="#74A2FF"/></linearGradient></defs></svg>