<svg width="42" height="48" fill="none" xmlns="http://www.w3.org/2000/svg"><path d="M21.059 23.835c6.213 0 11.25-5.037 11.25-11.25s-5.037-11.25-11.25-11.25c-6.214 0-11.25 5.037-11.25 11.25s5.036 11.25 11.25 11.25Z" stroke="#232D32" stroke-width="2"/><path d="M32.309 28.335h.792a6.75 6.75 0 0 1 6.696 5.913l.88 7.029a4.5 4.5 0 0 1-4.467 5.058H5.907a4.5 4.5 0 0 1-4.466-5.058l.877-7.029a6.75 6.75 0 0 1 6.701-5.913h.79" stroke="#232D32" stroke-width="2" stroke-linecap="round" stroke-linejoin="round"/></svg>