<svg width="28" height="21" fill="none" xmlns="http://www.w3.org/2000/svg"><path fill-rule="evenodd" clip-rule="evenodd" d="M6.786.65a1.52 1.52 0 0 1 0 2.15 10.645 10.645 0 0 0 0 15.055 1.521 1.521 0 1 1-2.15 2.15 13.687 13.687 0 0 1 0-19.356 1.52 1.52 0 0 1 2.15 0Zm15.055 0a1.52 1.52 0 0 1 2.15 0 13.687 13.687 0 0 1 0 19.355 1.52 1.52 0 1 1-2.15-2.15 10.644 10.644 0 0 0 0-15.055 1.52 1.52 0 0 1 0-2.15Zm-10.753 4.3a1.52 1.52 0 0 1 0 2.15 4.562 4.562 0 0 0 0 6.453 1.521 1.521 0 1 1-2.152 2.15 7.604 7.604 0 0 1 0-10.752 1.52 1.52 0 0 1 2.152 0V4.95Zm6.451 0a1.522 1.522 0 0 1 2.152 0 7.604 7.604 0 0 1 0 10.754 1.522 1.522 0 1 1-2.152-2.151 4.562 4.562 0 0 0 0-6.451 1.52 1.52 0 0 1 0-2.152Zm-3.225 3.857a1.52 1.52 0 0 1 1.52 1.52v.015a1.52 1.52 0 1 1-3.041 0v-.015a1.52 1.52 0 0 1 1.52-1.52Z" fill="#7FB7E7"/></svg>