<svg width="21" height="28" fill="none" xmlns="http://www.w3.org/2000/svg"><path d="M12.265 9.64a.04.04 0 0 0 .03.022l2.307.335c.44.063.62.606.298.918L12.265 9.64Zm0 0-1.03-2.088a.54.54 0 0 0-.97 0L9.236 9.64l-.001.002a.04.04 0 0 1-.03.021l-2.307.335h-.001a.54.54 0 0 0-.297.918l1.673 1.626a.04.04 0 0 1 .011.035v.002l-.394 2.298v.002a.54.54 0 0 0 .779.566l.002-.001 2.063-1.085a.04.04 0 0 1 .037 0l2.063 1.085a.54.54 0 0 0 .782-.566v-.001l-.393-2.298v-.001a.039.039 0 0 1 0-.019.038.038 0 0 1 .01-.016l1.668-1.626-2.635-1.276Z" fill="#7FB7E7" stroke="#7FB7E7" stroke-width=".5"/><path d="M20.75 26.188V4.25a3.5 3.5 0 0 0-3.5-3.5h-13a3.5 3.5 0 0 0-3.5 3.5v21.938a1.062 1.062 0 0 0 .561.936l.118-.22-.118.22a1.064 1.064 0 0 0 1.08-.045l8.36-4.506 8.359 4.506a1.063 1.063 0 0 0 1.64-.891ZM3.278 3.278c.258-.259.607-.403.972-.403h13a1.375 1.375 0 0 1 1.375 1.375v20.006l-7.298-3.835a1.063 1.063 0 0 0-1.154 0l-7.298 3.835V4.25c0-.365.145-.715.403-.973Z" fill="#7FB7E7" stroke="#7FB7E7" stroke-width=".5"/></svg>