<svg width="28" height="28" fill="none" xmlns="http://www.w3.org/2000/svg"><path d="M26.417.536A21.655 21.655 0 0 0 21.637 0c-3.61 0-6.51.995-8.392 2.877a514.775 514.775 0 0 0-4.433 4.485c-1.695-.191-5.692-.283-8.4 2.426a1.39 1.39 0 0 0 0 1.975l15.794 15.794a1.39 1.39 0 0 0 1.974 0c2.728-2.726 2.644-6.72 2.467-8.39l4.446-4.445c4.455-4.455 2.429-12.819 2.34-13.172A1.396 1.396 0 0 0 26.418.536ZM23.118 12.75l-4.936 4.935a1.395 1.395 0 0 0-.382 1.26c.007.036.569 3.131-.748 5.507L3.516 10.918c2.374-1.31 5.502-.704 5.512-.704.461.098.955-.05 1.289-.395.004-.004 1.963-2.028 4.903-4.969 1.7-1.7 4.427-2.058 6.417-2.058 1.322 0 2.503.155 3.256.284.34 1.998.872 7.025-1.775 9.674Z" fill="#7FB7E7"/><path d="M19.167 11.594a2.792 2.792 0 1 0 0-5.585 2.792 2.792 0 0 0 0 5.585ZM4.19 19.546c-2.793 1.396-2.793 6.981-2.793 6.981s4.189 0 6.981-2.792L4.19 19.546Z" fill="#7FB7E7"/></svg>
